/* XPM */
static char * east_xpm[] = {
"64 64 7 1",
" 	c #000083",
".	c #9191B2",
"+	c #FFFFFF",
"@	c #EDEDF1",
"#	c #B4B4C8",
"$	c #5D5D98",
"%	c #8D8DB0",
"                                                                ",
"                                                                ",
"                                                                ",
"                                                                ",
"                                                                ",
"                                                                ",
"                                                                ",
"                                                                ",
"                                                                ",
"                                                                ",
"                                                                ",
"                                                                ",
"                                                                ",
"                                                                ",
"                                                                ",
"                                                                ",
"                                                                ",
"                                                                ",
"                                                                ",
"                  .+++++++++++++++++++++@                       ",
"                  .+++++++++++++++++++++@                       ",
"                  .+++++++++++++++++++++@                       ",
"                  .+++++++++++++++++++++@                       ",
"                  .++++#                                        ",
"                  .++++#                                        ",
"                  .++++#                                        ",
"                  .++++#                                        ",
"                  .++++#                                        ",
"                  .++++#                                        ",
"                  .++++#                                        ",
"                  .++++#                                        ",
"                  .++++#                                        ",
"                  .++++#                                        ",
"                  .+++++++++++++++++++++$                       ",
"                  .+++++++++++++++++++++$                       ",
"                  .+++++++++++++++++++++$                       ",
"                  .+++++++++++++++++++++$                       ",
"                  .++++#                                        ",
"                  .++++#                                        ",
"                  .++++#                                        ",
"                  .++++#                                        ",
"                  .++++#                                        ",
"                  .++++#                                        ",
"                  .++++#                                        ",
"                  .++++#                                        ",
"                  .++++#                                        ",
"                  .++++#                                        ",
"                  .++++#                                        ",
"                  .++++#                                        ",
"                  .++++#                                        ",
"                  .++++++++++++++++++++++%                      ",
"                  .++++++++++++++++++++++%                      ",
"                  .++++++++++++++++++++++%                      ",
"                  .++++++++++++++++++++++%                      ",
"                                                                ",
"                                                                ",
"                                                                ",
"                                                                ",
"                                                                ",
"                                                                ",
"                                                                ",
"                                                                ",
"                                                                ",
"                                                                "};
