/* XPM */
static char *north[] = {
/* columns rows colors chars-per-pixel */
"32 32 88 1 ",
"  c red",
". c #FF0707",
"X c #FF5C5C",
"o c #FF8181",
"O c #FF6363",
"+ c #FF0909",
"@ c #FF0808",
"# c #FF6161",
"$ c #FF8383",
"% c #FF5858",
"& c #FF0606",
"* c #FF0E0E",
"= c #FFBCBC",
"- c white",
"; c #FFEEEE",
": c #FF4646",
"> c #FF1111",
", c #FFC5C5",
"< c #FFB4B4",
"1 c #FF0B0B",
"2 c #FFB8B8",
"3 c #FFABAB",
"4 c #FF0C0C",
"5 c #FFC1C1",
"6 c #FFB0B0",
"7 c #FFF2F2",
"8 c #FFFCFC",
"9 c #FF5151",
"0 c #FFCDCD",
"q c #FFCFCF",
"w c #FFB6B6",
"e c #FFB9B9",
"r c #FF6C6C",
"t c #FFF6F6",
"y c #FF5B5B",
"u c #FFBABA",
"i c #FF2020",
"p c #FFBFBF",
"a c #FF1414",
"s c #FFBBBB",
"d c #FF5252",
"f c #FFF3F3",
"g c snow",
"h c #FF6464",
"j c #FF0D0D",
"k c #FFAEAE",
"l c #FFC8C8",
"z c #FF1B1B",
"x c #FF0F0F",
"c c #FF4949",
"v c #FFFDFD",
"b c #FF7272",
"n c #FF1010",
"m c #FFA2A2",
"M c #FFD2D2",
"N c #FF2323",
"B c #FF3B3B",
"V c #FFE8E8",
"C c #FF7E7E",
"Z c #FF1212",
"A c #FF0404",
"S c #FF9595",
"D c #FFD9D9",
"F c #FF3C3C",
"G c #FF3333",
"H c #FFE2E2",
"J c #FF9B9B",
"K c #FF0303",
"L c #FF8C8C",
"P c #FFECEC",
"I c #FF2C2C",
"U c #FFDBDB",
"Y c #FF0101",
"T c #FF8080",
"R c #FFB2B2",
"E c #FFA4A4",
"W c #FFE9E9",
"Q c #FFA7A7",
"! c #FF2525",
"~ c #FFC3C3",
"^ c #FFE5E5",
"/ c #FFE6E6",
"( c #FF9D9D",
") c #FF0A0A",
"_ c #FF1C1C",
"` c #FF0202",
"' c #FF1515",
"] c #FF1313",
/* pixels */
"                                ",
"                                ",
"                                ",
"                                ",
"                                ",
"                                ",
"                                ",
"                                ",
"                                ",
"        .XooO+     @#$%&        ",
"        *=--;:     >,-<1        ",
"        *2---34    >5-61        ",
"        *2-7879    >5-61        ",
"        *2-0q-w>   >5-61        ",
"        *2-ertty   >5-61        ",
"        *2-ui2-pa  >5-61        ",
"        *2-s4dfgh  >5-61        ",
"        *2-sj4k-lz >5-61        ",
"        *2-sx c;vb n5-61        ",
"        *2-sx +m-MN*5-61        ",
"        *2-sx  BV-CZ5-61        ",
"        *2-sx  AS-DFp-61        ",
"        *2-sx   GH-J,-61        ",
"        *2-sx   KL-PH-61        ",
"        *2-sx    IU-v-61        ",
"        *u-=x    YT---R1        ",
"        4EWQj     !~^/()        ",
"        Ya_a`     Y'__]Y        ",
"                                ",
"                                ",
"                                ",
"                                "
};
