/* XPM */
static char * door_xpm[] = {
"64 64 5 1",
" 	c #FFFFFF",
".	c #82490B",
"+	c #5D2906",
"@	c #B76F20",
"#	c #D4BB7E",
"                                                                ",
"                                                                ",
"                                                                ",
"   ..........................................................   ",
"   ..........................................................   ",
"   ..........................................................   ",
"   ...++++++++++++++++++++++++++++++++++++++++++++++++++++...   ",
"   ...++++++++++++++++++++++++++++++++++++++++++++++++++++...   ",
"   ...++++++++++++++++++++++++++++++++++++++++++++++++++++...   ",
"   ...+++..............................................+++...   ",
"   ...+++..............................................+++...   ",
"   ...+++..............................................+++...   ",
"   ...+++...@@@@@@@@@@@@@@@@@@@@@@@@@@@@@@@@@@@@@@@@...+++...   ",
"   ...+++...@@@@@@@@@@@@@@@@@@@@@@@@@@@@@@@@@@@@@@@@...+++...   ",
"   ...+++...@@@@@@@@@@@@@@@@@@@@@@@@@@@@@@@@@@@@@@@@...+++...   ",
"   ...+++...@@@@@@@@@@@@@@@@@@@@@@@@@@@@@@@@@@@@@@@@...+++...   ",
"   ...+++...@@@@@@@@@@@@@@@@@@@@@@@@@@@@@@@@@@@@@@@@...+++...   ",
"   ...+++...@@@@@@@@@@@@@@@@@@@@@@@@@@@@@@@@@@@@@@@@...+++...   ",
"   ...+++...@@@@@@@@@@@@@@@@@@@@@@@@@@@@@@@@@@@@@@@@...+++...   ",
"   ...+++...@@@@@@@@@@@@@@@@@@@@@@@@@@@@@@@@@@@@@@@@...+++...   ",
"   ...+++...@@@@@@@@@@@@@@@@@@@@@@@@@@@@@@@@@@@@@@@@...+++...   ",
"   ...+++...@@@@@@@@@@@@@@@@@@@@@@@@@@@@@@@@@@@@@@@@...+++...   ",
"   ...+++...@@@@@@@@@@@@@@@@@@@@@@@@@@@@@@@@@@@@@@@@...+++...   ",
"   ...+++...@@@@@@@@@@@@@@@@@@@@@@@@@@@@@@@@@@@@@@@@...+++...   ",
"   ...+++...@@@@@@@@@@@@@@@@@@@@@@@@@@@@@@@@@@@@@@@@...+++...   ",
"   ...+++...@@@@@@@@@@@@@@@@@@@@@@@@@@@@@@@@@@@@@@@@...+++...   ",
"   ...+++...@@@@@@@@@@@@@@@@@@@@@@@@@@@@@@@@@@@@@@@@...+++...   ",
"   ...+++...@@@@@@@@@@@@@@@@@@@@@@@@@@@@@@@@@@@@@@@@...+++...   ",
"   ...+++...@@@@@@@@@@@@@@@@@@@@@@@@@@@@@@@@@@@@@@@@...+++...   ",
"   ...+++...@@@@@@@@@@@@@@@@@@@@@@@@@@@@@@@@@@@@@@@@...+++...   ",
"   ...+++...@@@@@@@@@@@@@@@@@@@@@@@@@@@@@@@@@@@@@@@@...+++...   ",
"   ...+++...@@@@@@@@@@@@@@@@@@@@@@@@@@@@@@@@@@@@@@@@...+++...   ",
"   ...+++...@@@@@@@@@@@@@@@@@@@@@@@@@@@@@@@@@@@@@@@@...+++...   ",
"   ...+++...@@@@@@@@@@@@@@@@@@@@@@@@@@@@@@@@@@@@@@@@...+++...   ",
"   ...+++...@@@@@@@@@@@@@@@@@@@@@@@@@@@@@@@@@@@@@@@@...+++...   ",
"   ...+++...@@@@@@@@@@@@@@@@@@@@@@@@@@@@#######@@@@@...+++...   ",
"   ...+++...@@@@@@@@@@@@@@@@@@@@@@@@@@@#########@@@@...+++...   ",
"   ...+++...@@@@@@@@@@@@@@@@@@@@@@@@@@@#########@@@@...+++...   ",
"   ...+++...@@@@@@@@@@@@@@@@@@@@@@@@@@@#########@@@@...+++...   ",
"   ...+++...@@@@@@@@@@@@@@@@@@@@@@@@@@@#########@@@@...+++...   ",
"   ...+++...@@@@@@@@@@@@@@@@@@@@@@@@@@@#########@@@@...+++...   ",
"   ...+++...@@@@@@@@@@@@@@@@@@@@@@@@@@@#########@@@@...+++...   ",
"   ...+++...@@@@@@@@@@@@@@@@@@@@@@@@@@@#########@@@@...+++...   ",
"   ...+++...@@@@@@@@@@@@@@@@@@@@@@@@@@@@#######@@@@@...+++...   ",
"   ...+++...@@@@@@@@@@@@@@@@@@@@@@@@@@@@@@@@@@@@@@@@...+++...   ",
"   ...+++...@@@@@@@@@@@@@@@@@@@@@@@@@@@@@@@@@@@@@@@@...+++...   ",
"   ...+++...@@@@@@@@@@@@@@@@@@@@@@@@@@@@@@@@@@@@@@@@...+++...   ",
"   ...+++...@@@@@@@@@@@@@@@@@@@@@@@@@@@@@@@@@@@@@@@@...+++...   ",
"   ...+++...@@@@@@@@@@@@@@@@@@@@@@@@@@@@@@@@@@@@@@@@...+++...   ",
"   ...+++...@@@@@@@@@@@@@@@@@@@@@@@@@@@@@@@@@@@@@@@@...+++...   ",
"   ...+++...@@@@@@@@@@@@@@@@@@@@@@@@@@@@@@@@@@@@@@@@...+++...   ",
"   ...+++...@@@@@@@@@@@@@@@@@@@@@@@@@@@@@@@@@@@@@@@@...+++...   ",
"   ...+++...@@@@@@@@@@@@@@@@@@@@@@@@@@@@@@@@@@@@@@@@...+++...   ",
"   ...+++...@@@@@@@@@@@@@@@@@@@@@@@@@@@@@@@@@@@@@@@@...+++...   ",
"   ...+++...@@@@@@@@@@@@@@@@@@@@@@@@@@@@@@@@@@@@@@@@...+++...   ",
"   ...+++...@@@@@@@@@@@@@@@@@@@@@@@@@@@@@@@@@@@@@@@@...+++...   ",
"   ...+++...@@@@@@@@@@@@@@@@@@@@@@@@@@@@@@@@@@@@@@@@...+++...   ",
"   ...+++...@@@@@@@@@@@@@@@@@@@@@@@@@@@@@@@@@@@@@@@@...+++...   ",
"   ...+++...@@@@@@@@@@@@@@@@@@@@@@@@@@@@@@@@@@@@@@@@...+++...   ",
"   ...+++...@@@@@@@@@@@@@@@@@@@@@@@@@@@@@@@@@@@@@@@@...+++...   ",
"   ...+++...@@@@@@@@@@@@@@@@@@@@@@@@@@@@@@@@@@@@@@@@...+++...   ",
"   ...+++...@@@@@@@@@@@@@@@@@@@@@@@@@@@@@@@@@@@@@@@@...+++...   ",
"   ...+++...@@@@@@@@@@@@@@@@@@@@@@@@@@@@@@@@@@@@@@@@...+++...   ",
"   ...+++...@@@@@@@@@@@@@@@@@@@@@@@@@@@@@@@@@@@@@@@@...+++...   "};
