/* XPM */
static char *east[] = {
/* columns rows colors chars-per-pixel */
"32 32 43 1 ",
"  c #000083",
". c #000081",
"X c #000082",
"o c #070785",
"O c #5C5CAB",
"+ c #8181C2",
"@ c #8080C1",
"# c #8181C1",
"$ c #3C3C9F",
"% c #0E0E87",
"& c #BCBCD5",
"* c white",
"= c #7D7DBE",
"- c #B8B8D3",
"; c #E2E2ED",
": c #8989C4",
"> c #7F7FC1",
", c #C5C5DB",
"< c navy",
"1 c #C6C6DC",
"2 c #121289",
"3 c #7878BC",
"4 c #20208E",
"5 c #F8F8F9",
"6 c #43439A",
"7 c #C5C5DC",
"8 c #101089",
"9 c #CCCCE0",
"0 c #2C2C96",
"q c #1B1B90",
"w c #1C1C91",
"e c #14148C",
"r c #010183",
"t c #BABAD4",
"y c #FBFBFC",
"u c #E7E7F3",
"i c #E5E5F2",
"p c #E8E8F4",
"a c #A4A4CB",
"s c #0C0C86",
"d c #E6E6F3",
"f c #E4E4F2",
"g c white",
/* pixels */
"                                ",
"                                ",
"                                ",
"                                ",
"                                ",
"                                ",
"                                ",
"                                ",
"         ...........X           ",
"        oO+@@@@@@@@#$X          ",
"        %&**********=.          ",
"        %-*;:>@@@@@#$X          ",
"        %-*,%<......X           ",
"        %-*12X                  ",
"        %-*12X                  ",
"        %-*,%<......            ",
"        %-*;:>@@@@@34X          ",
"        %-*********56X          ",
"        %-*;:>@@@@@34X          ",
"        %-*,%<......            ",
"        %-*12X                  ",
"        %-*12X                  ",
"        %-*12X                  ",
"        %-*78XXXXXXXX           ",
"        %-*90qwwwwwwer          ",
"        %t*yuiiiiiipas          ",
"        sadfiiiiiiipas          ",
"        rewwwwwwwwwwer          ",
"         XXXXXXXXXXXX           ",
"                                ",
"                                ",
"                                "
};
