/* XPM */
static char * north_xpm[] = {
"64 64 78 1",
" 	c #FF0000",
".	c #FF9191",
"+	c #FFFFFF",
"@	c #FFA1A1",
"#	c #FFA8A8",
"$	c #FF7D7D",
"%	c #FFEFEF",
"&	c #FF2626",
"*	c #FFADAD",
"=	c #FFF4F4",
"-	c #FF3838",
";	c #FFB8B8",
">	c #FFFDFD",
",	c #FFF8F8",
"'	c #FF4949",
")	c #FFCACA",
"!	c #FFC2C2",
"~	c #FF9898",
"{	c #FFE0E0",
"]	c #FFFBFB",
"^	c #FF5A5A",
"/	c #FF8080",
"(	c #FFCBCB",
"_	c #FFD8D8",
":	c #FF6969",
"<	c #FF7171",
"[	c #FFFEFE",
"}	c #FFD4D4",
"|	c #FFD0D0",
"1	c #FF7878",
"2	c #FF6262",
"3	c #FFFCFC",
"4	c #FFDCDC",
"5	c #FFC7C7",
"6	c #FF8888",
"7	c #FF5151",
"8	c #FFFAFA",
"9	c #FFE4E4",
"0	c #FFBDBD",
"a	c #FF9696",
"b	c #FF4242",
"c	c #FFF6F6",
"d	c #FFEBEB",
"e	c #FF1616",
"f	c #FFB2B2",
"g	c #FFA3A3",
"h	c #FF2E2E",
"i	c #FFF2F2",
"j	c #FFF0F0",
"k	c #FF2A2A",
"l	c #FFA7A7",
"m	c #FFAEAE",
"n	c #FF1C1C",
"o	c #FFEDED",
"p	c #FFF5F5",
"q	c #FF3B3B",
"r	c #FF9B9B",
"s	c #FFB9B9",
"t	c #FFE7E7",
"u	c #FF4B4B",
"v	c #FF8D8D",
"w	c #FFC3C3",
"x	c #FFDFDF",
"y	c #FF5C5C",
"z	c #FF7E7E",
"A	c #FFCCCC",
"B	c #FFD7D7",
"C	c #FF6C6C",
"D	c #FF7070",
"E	c #FFD5D5",
"F	c #FFCECE",
"G	c #FF5F5F",
"H	c #FFC5C5",
"I	c #FF4F4F",
"J	c #FFF9F9",
"K	c #FFBBBB",
"L	c #FF4040",
"M	c #FFB1B1",
"                                                                ",
"                                                                ",
"                                                                ",
"                                                                ",
"                                                                ",
"                                                                ",
"                                                                ",
"                                                                ",
"                                                                ",
"                                                                ",
"                                                                ",
"                                                                ",
"                                                                ",
"                                                                ",
"                                                                ",
"                                                                ",
"                                                                ",
"                                                                ",
"                                                                ",
"                  .++++++@              #++++$                  ",
"                  .++++++%&             #++++$                  ",
"                  .+++++++*             #++++$                  ",
"                  .+++++++=-            #++++$                  ",
"                  .++++++++;            #++++$                  ",
"                  .++++>+++,'           #++++$                  ",
"                  .++++)++++!           #++++$                  ",
"                  .++++~{+++]^          #++++$                  ",
"                  .++++~/++++(          #++++$                  ",
"                  .++++~ _+++>:         #++++$                  ",
"                  .++++~ <[+++}         #++++$                  ",
"                  .++++~  |++++1        #++++$                  ",
"                  .++++~  23+++4        #++++$                  ",
"                  .++++~   5++++6       #++++$                  ",
"                  .++++~   78+++9       #++++$                  ",
"                  .++++~    0++++a      #++++$                  ",
"                  .++++~    bc+++de     #++++$                  ",
"                  .++++~     f++++g     #++++$                  ",
"                  .++++~     hi+++jk    #++++$                  ",
"                  .++++~      l++++m    #++++$                  ",
"                  .++++~      no+++pq   #++++$                  ",
"                  .++++~       r++++s   #++++$                  ",
"                  .++++~        t+++,u  #++++$                  ",
"                  .++++~        v++++w  #++++$                  ",
"                  .++++~         x+++]y #++++$                  ",
"                  .++++~         z++++A #++++$                  ",
"                  .++++~          B+++>C#++++$                  ",
"                  .++++~          D[+++E#++++$                  ",
"                  .++++~           F++++)++++$                  ",
"                  .++++~           G3+++>++++$                  ",
"                  .++++~            H++++++++$                  ",
"                  .++++~            IJ+++++++$                  ",
"                  .++++~             K+++++++$                  ",
"                  .++++~             Lc++++++$                  ",
"                  .++++~              M++++++$                  ",
"                                                                ",
"                                                                ",
"                                                                ",
"                                                                ",
"                                                                ",
"                                                                ",
"                                                                ",
"                                                                ",
"                                                                ",
"                                                                "};
