/* XPM */
static char *south[] = {
/* columns rows colors chars-per-pixel */
"32 32 147 2 ",
"   c #006000",
".  c #005F00",
"X  c #116811",
"o  c #196F19",
"O  c #1B711B",
"+  c #1B701B",
"@  c #176D17",
"#  c #0F670F",
"$  c #005E00",
"%  c #237023",
"&  c #7CA57C",
"*  c #C2D2C2",
"=  c #DBE7DB",
"-  c #E3EDE3",
";  c #E1ECE1",
":  c #D6E2D6",
">  c #BCCEBC",
",  c #84AC84",
"<  c #458345",
"1  c #056205",
"2  c #367C36",
"3  c #C6D5C6",
"4  c #FFFEFF",
"5  c white",
"6  c #F9F9F9",
"7  c #EEF1EE",
"8  c #EFF2EF",
"9  c gray98",
"0  c #CDDACD",
"q  c #156C15",
"w  c #136913",
"e  c #B9CCB9",
"r  c #F3F5F3",
"t  c #9BBB9B",
"y  c #568E56",
"u  c #377937",
"i  c #3B7B3B",
"p  c #5A905A",
"a  c #8CB18C",
"s  c #D6E0D6",
"d  c #D1DDD1",
"f  c #508B50",
"g  c #F5F6F5",
"h  c #FEFDFE",
"j  c #8AAE8A",
"k  c #086208",
"l  c #016001",
"z  c #237123",
"x  c #518C51",
"c  c #0C670C",
"v  c #005D00",
"b  c #71A371",
"n  c #EAF0EA",
"m  c #2F792F",
"M  c #75A675",
"N  c #E9F0E9",
"B  c #2D782D",
"V  c #629762",
"C  c #FBFBFB",
"Z  c #FDFDFD",
"A  c #8DB08D",
"S  c #106710",
"D  c #277227",
"F  c #D5DFD5",
"G  c #F6F8F6",
"H  c #B9CDB9",
"J  c #73A273",
"K  c #498649",
"L  c #1C6F1C",
"P  c #0D660D",
"I  c #558D55",
"U  c #DEE6DE",
"Y  c #F2F5F2",
"T  c #DAE5DA",
"R  c #B8CBB8",
"E  c #74A274",
"W  c #2B752B",
"Q  c #347C34",
"!  c #92B492",
"~  c #D4E0D4",
"^  c #F2F4F2",
"/  c #FFFDFF",
"(  c #D7E1D7",
")  c #5E925E",
"_  c #046104",
"`  c #196D19",
"'  c #488548",
"]  c #6C9E6C",
"[  c #98B898",
"{  c gray99",
"}  c #E7ECE7",
"|  c #478547",
" . c #046004",
".. c #217021",
"X. c #8EB18E",
"o. c #F8F9F8",
"O. c #A8C0A8",
"+. c #096309",
"@. c #166B16",
"#. c #C9D7C9",
"$. c #D2DED2",
"%. c #166C16",
"&. c #0A630A",
"*. c #B0C4B0",
"=. c #D7E3D7",
"-. c #186E18",
";. c #0B660B",
":. c #0B640B",
">. c #186C18",
",. c #CCD9CC",
"<. c #CAD8CA",
"1. c #136A13",
"2. c #609760",
"3. c #ADC3AD",
"4. c #5D925D",
"5. c #207020",
"6. c #0E660E",
"7. c #066006",
"8. c #025F02",
"9. c #0A640A",
"0. c #247224",
"q. c #94B594",
"w. c #FAFBFA",
"e. c #8CB08C",
"r. c #036003",
"t. c #73A473",
"y. c #DBE5DB",
"u. c #BCCDBC",
"i. c #A0BAA0",
"p. c #94B494",
"a. c #B1C5B1",
"s. c #DAE3DA",
"d. c #2C762C",
"f. c #4A874A",
"g. c #E9EFE9",
"h. c #FCFBFC",
"j. c #A8C1A8",
"k. c #347A34",
"l. c #116911",
"z. c #327A32",
"x. c #619661",
"c. c #74A674",
"v. c #7DAD7D",
"b. c #7EAE7E",
"n. c #79A979",
"m. c #699B69",
"M. c #387D38",
/* pixels */
"                                                                ",
"                                                                ",
"                                                                ",
"                                                                ",
"                                                                ",
"                                                                ",
"                                                                ",
"                        . . . . . .                             ",
"                    . . X o O + @ # $ $                         ",
"                  . % & * = - ; : > , < 1                       ",
"                . 2 3 4 5 6 7 8 9 5 5 0 q .                     ",
"              . w e 5 r t y u i p a s d @ .                     ",
"              $ f g h j k $ . . $ l z x c                       ",
"              v b 5 n m $           . $                         ",
"              v M 5 N B $                                       ",
"              $ V C Z A S $ $ . .                               ",
"              . D F 5 G H J K L P $ .                           ",
"                . I U 5 5 4 Y T R E W .                         ",
"                  l Q ! ~ ^ / 5 5 4 ( ) _                       ",
"                    $ _ ` ' ] [ s { 5 } | $                     ",
"                        . $ v  ...X.o.5 O.+.                    ",
"                                $ @.#.5 $.%..                   ",
"                                  &.*.5 =.-..                   ",
"                ;.:.$ . .       $ >.,.5 <.1..                   ",
"              $ 2.3.4.5.6.7.8.9.0.q.w.5 e.r.                    ",
"              v t.5 9 y.u.i.p.a.s.h 5 ,.d..                     ",
"              $ f.3 g.h.5 5 5 5 / g.j.k..                       ",
"                _ l.z.x.c.v.b.n.m.M.9..                         ",
"                  . . $ v v v v $ .                             ",
"                                                                ",
"                                                                ",
"                                                                "
};
