/* XPM */
static char * south_xpm[] = {
"64 64 123 2",
"  	c #006000",
". 	c #326A32",
"+ 	c #9BAB9B",
"@ 	c #C5CDC5",
"# 	c #E3E7E3",
"$ 	c #F0F2F0",
"% 	c #F8F9F8",
"& 	c #FEFEFE",
"* 	c #F9FAF9",
"= 	c #F3F5F3",
"- 	c #E6E9E6",
"; 	c #D2D8D2",
"> 	c #B8C2B8",
", 	c #889D88",
"' 	c #457245",
") 	c #C2CBC2",
"! 	c #F7F8F7",
"~ 	c #FFFFFF",
"{ 	c #FCFCFC",
"] 	c #DDE1DD",
"^ 	c #A8B5A8",
"/ 	c #4D764D",
"( 	c #899D89",
"_ 	c #F2F3F2",
": 	c #D8DDD8",
"< 	c #8EA18E",
"[ 	c #688668",
"} 	c #FBFBFB",
"| 	c #E5E8E5",
"1 	c #B0BCB0",
"2 	c #829882",
"3 	c #537A53",
"4 	c #2E692E",
"5 	c #3B6E3B",
"6 	c #638363",
"7 	c #B9C3B9",
"8 	c #DFE3DF",
"9 	c #D9DED9",
"0 	c #F5F6F5",
"a 	c #93A493",
"b 	c #587D58",
"c 	c #B6C0B6",
"d 	c #6A886A",
"e 	c #6D896D",
"f 	c #266726",
"g 	c #AAB7AA",
"h 	c #C7CEC7",
"i 	c #B4BFB4",
"j 	c #B6C1B6",
"k 	c #D5DAD5",
"l 	c #608160",
"m 	c #E2E5E2",
"n 	c #E8EBE8",
"o 	c #FAFBFA",
"p 	c #E0E4E0",
"q 	c #567C56",
"r 	c #D0D6D0",
"s 	c #B2BDB2",
"t 	c #A6B3A6",
"u 	c #7F967F",
"v 	c #497449",
"w 	c #FDFDFD",
"x 	c #BCC5BC",
"y 	c #C4CCC4",
"z 	c #9AAA9A",
"A 	c #5D7F5D",
"B 	c #1C641C",
"C 	c #DEE2DE",
"D 	c #F4F5F4",
"E 	c #B3BEB3",
"F 	c #7D947D",
"G 	c #0D610D",
"H 	c #CED4CE",
"I 	c #F1F3F1",
"J 	c #BEC7BE",
"K 	c #5C7F5C",
"L 	c #8A9E8A",
"M 	c #BDC6BD",
"N 	c #779077",
"O 	c #EDEFED",
"P 	c #E2E6E2",
"Q 	c #4F784F",
"R 	c #557B55",
"S 	c #BFC8BF",
"T 	c #F6F7F6",
"U 	c #758F75",
"V 	c #BBC4BB",
"W 	c #226522",
"X 	c #B1BCB1",
"Y 	c #94A594",
"Z 	c #9EAD9E",
"` 	c #D4D9D4",
" .	c #CAD1CA",
"..	c #99A999",
"+.	c #DBDFDB",
"@.	c #768F76",
"#.	c #E4E7E4",
"$.	c #7C937C",
"%.	c #A0AFA0",
"&.	c #DCE1DC",
"*.	c #C8CFC8",
"=.	c #427142",
"-.	c #F9F9F9",
";.	c #C9D0C9",
">.	c #879C87",
",.	c #166316",
"'.	c #D1D7D1",
").	c #859A85",
"!.	c #658465",
"~.	c #477347",
"{.	c #407040",
"].	c #668566",
"^.	c #95A695",
"/.	c #FCFDFC",
"(.	c #6C896C",
"_.	c #96A796",
":.	c #8C9F8C",
"<.	c #356B35",
"[.	c #A3B1A3",
"}.	c #EBEEEB",
"|.	c #F3F4F3",
"1.	c #EAECEA",
"2.	c #839983",
"                                                                                                                                ",
"                                                                                                                                ",
"                                                                                                                                ",
"                                                                                                                                ",
"                                                                                                                                ",
"                                                                                                                                ",
"                                                                                                                                ",
"                                                                                                                                ",
"                                                                                                                                ",
"                                                                                                                                ",
"                                                                                                                                ",
"                                                                                                                                ",
"                                                                                                                                ",
"                                                                                                                                ",
"                                                                                                                                ",
"                                                                                                                                ",
"                                                                                                                                ",
"                                                                                                                                ",
"                                              . + @ # $ % & * = - ; > , .                                                       ",
"                                          ' ) ! ~ ~ ~ ~ ~ ~ ~ ~ ~ ~ ~ ~ { ] ^ /                                                 ",
"                                        ( _ ~ ~ ~ ~ ~ ~ ~ ~ ~ ~ ~ ~ ~ ~ ~ ~ ~ :                                                 ",
"                                      < { ~ ~ ~ ~ ~ ~ ~ ~ ~ ~ ~ ~ ~ ~ ~ ~ ~ ~ :                                                 ",
"                                    [ } ~ ~ ~ ~ ~ | 1 2 3 4 5 6 ( 7 8 & ~ ~ ~ :                                                 ",
"                                    9 ~ ~ ~ ~ 0 a                     b c $ ~ :                                                 ",
"                                  d ~ ~ ~ ~ * e                           f g h                                                 ",
"                                  i ~ ~ ~ ~ j                                                                                   ",
"                                  k ~ ~ ~ ~ l                                                                                   ",
"                                  m ~ ~ ~ {                                                                                     ",
"                                  n ~ ~ ~ o                                                                                     ",
"                                  p ~ ~ ~ ~ q                                                                                   ",
"                                  r ~ ~ ~ ~ s                                                                                   ",
"                                  t ~ ~ ~ ~ * u                                                                                 ",
"                                  v * ~ ~ ~ ~ w @ [                                                                             ",
"                                    x ~ ~ ~ ~ ~ ~ ~ n y z A                                                                     ",
"                                    B C ~ ~ ~ ~ ~ ~ ~ ~ ~ ~ D : E F G                                                           ",
"                                      4 H ~ ~ ~ ~ ~ ~ ~ ~ ~ ~ ~ ~ ~ I J K                                                       ",
"                                          L | ~ ~ ~ ~ ~ ~ ~ ~ ~ ~ ~ ~ ~ } M f                                                   ",
"                                              N y O ~ ~ ~ ~ ~ ~ ~ ~ ~ ~ ~ ~ P Q                                                 ",
"                                                    R z S ] T ~ ~ ~ ~ ~ ~ ~ ~ # f                                               ",
"                                                            G U V $ ~ ~ ~ ~ ~ ~ x                                               ",
"                                                                  W X { ~ ~ ~ ~ % '                                             ",
"                                                                      Y ~ ~ ~ ~ ~ Z                                             ",
"                                                                        ` ~ ~ ~ ~  .                                            ",
"                                                                        ..~ ~ ~ ~ +.                                            ",
"                                                                        @.~ ~ ~ ~ #.                                            ",
"                                                                        $.~ ~ ~ ~ ]                                             ",
"                                                                        %.~ ~ ~ ~ r                                             ",
"                                                                        &.~ ~ ~ ~ s                                             ",
"                                  *.i =.                              t ~ ~ ~ ~ ~ [                                             ",
"                                  : ~ -.;.>.,.                    . V & ~ ~ ~ ~ ]                                               ",
"                                  : ~ ~ ~ ~ D '.1 ).!.~.B {.].^.@ D ~ ~ ~ ~ ~ /.(.                                              ",
"                                  : ~ ~ ~ ~ ~ ~ ~ ~ ~ ~ ~ ~ ~ ~ ~ ~ ~ ~ ~ ~ /._.                                                ",
"                                  : ~ ~ ~ ~ ~ ~ ~ ~ ~ ~ ~ ~ ~ ~ ~ ~ ~ ~ ~ $ :.                                                  ",
"                                  v %.; T ~ ~ ~ ~ ~ ~ ~ ~ ~ ~ ~ ~ ~ ~ $ 7 <.                                                    ",
"                                          d [.y 9 }.0 } & -.|.1.` j 2.G                                                         ",
"                                                                                                                                ",
"                                                                                                                                ",
"                                                                                                                                ",
"                                                                                                                                ",
"                                                                                                                                ",
"                                                                                                                                ",
"                                                                                                                                ",
"                                                                                                                                ",
"                                                                                                                                "};
