/* XPM */
static char * west_xpm[] = {
"64 64 111 2",
"  	c #000000",
". 	c #919191",
"+ 	c #FFFFFF",
"@ 	c #BBBBBB",
"# 	c #454545",
"$ 	c #FEFEFE",
"% 	c #BEBEBE",
"& 	c #3D3D3D",
"* 	c #FDFDFD",
"= 	c #E3E3E3",
"- 	c #E0E0E0",
"; 	c #949494",
"> 	c #E5E5E5",
", 	c #FBFBFB",
"' 	c #2E2E2E",
") 	c #C3C3C3",
"! 	c #FCFCFC",
"~ 	c #353535",
"{ 	c #C0C0C0",
"] 	c #8C8C8C",
"^ 	c #C1C1C1",
"/ 	c #878787",
"( 	c #E7E7E7",
"_ 	c #8B8B8B",
": 	c #404040",
"< 	c #BDBDBD",
"[ 	c #3B3B3B",
"} 	c #E2E2E2",
"| 	c #939393",
"1 	c #CACACA",
"2 	c #8F8F8F",
"3 	c #2A2A2A",
"4 	c #C2C2C2",
"5 	c #959595",
"6 	c #323232",
"7 	c #BFBFBF",
"8 	c #868686",
"9 	c #E6E6E6",
"0 	c #494949",
"a 	c #8A8A8A",
"b 	c #E4E4E4",
"c 	c #909090",
"d 	c #BABABA",
"e 	c #E9E9E9",
"f 	c #383838",
"g 	c #DFDFDF",
"h 	c #C7C7C7",
"i 	c #E1E1E1",
"j 	c #8D8D8D",
"k 	c #9A9A9A",
"l 	c #E8E8E8",
"m 	c #858585",
"n 	c #515151",
"o 	c #C6C6C6",
"p 	c #898989",
"q 	c #B9B9B9",
"r 	c #EBEBEB",
"s 	c #BCBCBC",
"t 	c #DEDEDE",
"u 	c #4F4F4F",
"v 	c #262626",
"w 	c #9E9E9E",
"x 	c #ECECEC",
"y 	c #848484",
"z 	c #585858",
"A 	c #888888",
"B 	c #B8B8B8",
"C 	c #EEEEEE",
"D 	c #9F9F9F",
"E 	c #8E8E8E",
"F 	c #CCCCCC",
"G 	c #5A5A5A",
"H 	c #FAFAFA",
"I 	c #A2A2A2",
"J 	c #EFEFEF",
"K 	c #828282",
"L 	c #5F5F5F",
"M 	c #CECECE",
"N 	c #B7B7B7",
"O 	c #F0F0F0",
"P 	c #A5A5A5",
"Q 	c #DDDDDD",
"R 	c #CFCFCF",
"S 	c #656565",
"T 	c #222222",
"U 	c #F2F2F2",
"V 	c #818181",
"W 	c #D2D2D2",
"X 	c #B6B6B6",
"Y 	c #AAAAAA",
"Z 	c #6E6E6E",
"` 	c #A9A9A9",
" .	c #F5F5F5",
"..	c #808080",
"+.	c #6C6C6C",
"@.	c #D6D6D6",
"#.	c #F4F4F4",
"$.	c #AFAFAF",
"%.	c #F6F6F6",
"&.	c #D5D5D5",
"*.	c #777777",
"=.	c #ADADAD",
"-.	c #161616",
";.	c #F7F7F7",
">.	c #727272",
",.	c #DADADA",
"'.	c #0D0D0D",
").	c #B4B4B4",
"!.	c #D7D7D7",
"~.	c #7F7F7F",
"{.	c #B0B0B0",
"                                                                                                                                ",
"                                                                                                                                ",
"                                                                                                                                ",
"                                                                                                                                ",
"                                                                                                                                ",
"                                                                                                                                ",
"                                                                                                                                ",
"                                                                                                                                ",
"                                                                                                                                ",
"                                                                                                                                ",
"                                                                                                                                ",
"                                                                                                                                ",
"                                                                                                                                ",
"                                                                                                                                ",
"                                                                                                                                ",
"                                                                                                                                ",
"                                                                                                                                ",
"                                                                                                                                ",
"                                                                                                                                ",
"                              . + + + + @                           # $ + + + + %                           & * + + + =         ",
"                              & * + + + -                           ; + + + + + =                           . + + + + %         ",
"                                > + + + , '                         ) + + + + + ! ~                         { + + + + ]         ",
"                                ^ + + + + /                         ( + + + + + + _                         > + + + ! ~         ",
"                                . + + + + @                       : $ + + , + + + <                       [ * + + + }           ",
"                                & * + + + -                       | + + + 1 * + + }                       2 + + + + <           ",
"                                  > + + + , 3                     4 + + + 5 > + + ! 6                     7 + + + + _           ",
"                                  ^ + + + + 8                     9 + + $ 0 4 + + + a                     b + + + ! ~           ",
"                                  c + + + + d                   & * + + e   ; + + + <                   f * + + + }             ",
"                                  [ * + + + g                   . + + + h   # $ + + i                   j + + + + <             ",
"                                    > + + + , 3                 ^ + + + k     l + + ! 6                 % + + + + a             ",
"                                    { + + + + m                 > + + + n     o + + + p                 = + + + ! 6             ",
"                                    c + + + + q               [ * + + r       k + + + s               ~ ! + + + }               ",
"                                    [ * + + + t               2 + + + 1       u + + + -               _ + + + + s               ",
"                                      > + + + , v             { + + + w         x + + , '             < + + + + p               ",
"                                      { + + + + y             b + + + z         1 + + + A             } + + + ! 6               ",
"                                      c + + + + B           f * + + C           D + + + @           6 ! + + + i                 ",
"                                      [ * + + + t           E + + + F           G + + + -           a + + + + @                 ",
"                                        b + + + H v         % + + + I             J + + , '         s + + + + A                 ",
"                                        { + + + + K         = + + + L             M + + + 8         i + + + , '                 ",
"                                        2 + + + + N       ~ ! + + O               P + + + d       ' , + + + -                   ",
"                                        [ * + + + Q       ] + + + R               S + + + g       A + + + + @                   ",
"                                          b + + + H T     < + + + P                 U + + , 3     @ + + + + /                   ",
"                                          { + + + + V     } + + + S                 W + + + m     - + + + , '                   ",
"                                          2 + + + + X   6 ! + + U                   Y + + + q   3 , + + + -                     ",
"                                          [ * + + + Q   a + + + W                   Z + + + g   8 + + + + @                     ",
"                                            b + + + H T < + + + `                      .+ + , v d + + + + 8                     ",
"                                            7 + + + + ..i + + + +.                    @.+ + + y g + + + , 3                     ",
"                                            E + + + + @ , + + #.                      $.+ + + s , + + + g                       ",
"                                            f * + + + %.+ + + &.                      *.+ + + %.+ + + + d                       ",
"                                              b + + + + + + + =.                      -.;.+ + + + + + + m                       ",
"                                              7 + + + + + + + >.                        ,.+ + + + + + , 3                       ",
"                                              E + + + + + + %.'.                        ).+ + + + + + g                         ",
"                                              f * + + + + + !.                          ~.+ + + + + + q                         ",
"                                                = + + + + + {.                          T H + + + + + m                         ",
"                                                                                                                                ",
"                                                                                                                                ",
"                                                                                                                                ",
"                                                                                                                                ",
"                                                                                                                                ",
"                                                                                                                                ",
"                                                                                                                                ",
"                                                                                                                                ",
"                                                                                                                                ",
"                                                                                                                                "};
