/* XPM */
static char *_b77417a822a4484c9adc4c972b2a0efhOhNMAzwtiN3vZGK[] = {
/* columns rows colors chars-per-pixel */
"36 36 237 2 ",
"   c None",
".  c black",
"X  c #010101",
"o  c #010102",
"O  c #020202",
"+  c #020203",
"@  c gray1",
"#  c #030304",
"$  c #040404",
"%  c #040405",
"&  c gray2",
"*  c #050506",
"=  c #060506",
"-  c #080708",
";  c gray3",
":  c #080809",
">  c #090909",
",  c #09090A",
"<  c #0A090A",
"1  c gray4",
"2  c #0A0A0B",
"3  c #0B0B0C",
"4  c #0C0C0C",
"5  c gray5",
"6  c #0E0D0D",
"7  c #0D0D0E",
"8  c #0D0D0F",
"9  c #0E0E0E",
"0  c #0E0E0F",
"q  c #0F0E0F",
"w  c gray6",
"e  c #100F10",
"r  c #100F11",
"t  c #101010",
"y  c #101011",
"u  c #111011",
"i  c #111111",
"p  c #121111",
"a  c #111112",
"s  c #121113",
"d  c gray7",
"f  c #131212",
"g  c #121213",
"h  c #131213",
"j  c #131313",
"k  c #141313",
"l  c #121214",
"z  c #131314",
"x  c #141314",
"c  c #141315",
"v  c gray8",
"b  c #151414",
"n  c #141415",
"m  c #151415",
"M  c #151515",
"N  c #161515",
"B  c #151517",
"V  c #161516",
"C  c #161616",
"Z  c #171616",
"A  c #161617",
"S  c #171617",
"D  c gray9",
"F  c #181717",
"G  c #171718",
"H  c #171719",
"J  c #181718",
"K  c #181818",
"L  c #191818",
"P  c #181819",
"I  c #191819",
"U  c #191919",
"Y  c #18181A",
"T  c #19181A",
"R  c #19191A",
"E  c #19191B",
"W  c #1A191A",
"Q  c #1A191B",
"!  c gray10",
"~  c #1B1A1A",
"^  c #1A1A1B",
"/  c #1B1A1B",
"(  c #1B1B1B",
")  c #1C1B1B",
"_  c #1A1A1C",
"`  c #1B1A1C",
"'  c #1B1B1C",
"]  c #1A1A1D",
"[  c #1B1B1D",
"{  c #1C1B1C",
"}  c gray11",
"|  c #1C1C1D",
" . c #1D1D1D",
".. c #1C1C1E",
"X. c #1D1C1E",
"o. c #1D1D1E",
"O. c #1C1C1F",
"+. c #1D1D1F",
"@. c #1E1D1F",
"#. c #1E1E1E",
"$. c #1E1E1F",
"%. c #1F1E1F",
"&. c gray12",
"*. c #1E1E20",
"=. c #1F1E20",
"-. c #1F1F20",
";. c #1F1F21",
":. c #201F21",
">. c #202020",
",. c #202021",
"<. c #202022",
"1. c #212022",
"2. c #212122",
"3. c #212023",
"4. c #212123",
"5. c #222123",
"6. c #222223",
"7. c #232323",
"8. c #222124",
"9. c #222224",
"0. c #232224",
"q. c #232324",
"w. c #222225",
"e. c #232325",
"r. c #252525",
"t. c #242426",
"y. c #242427",
"u. c #262627",
"i. c #272727",
"p. c #242428",
"a. c #252528",
"s. c #252529",
"d. c #262528",
"f. c #272628",
"g. c #272728",
"h. c #262629",
"j. c #27272A",
"k. c #27272B",
"l. c #28282A",
"z. c #29292A",
"x. c #28282B",
"c. c #29292B",
"v. c #2A2A2A",
"b. c #29282C",
"n. c #29292C",
"m. c #2A292C",
"M. c #2A2A2C",
"N. c #2A2A2D",
"B. c #2B2A2D",
"V. c #2B2B2D",
"C. c #2B2B2E",
"Z. c #2C2C2C",
"A. c #2C2C2F",
"S. c #2D2D30",
"D. c #2E2D30",
"F. c #2E2E31",
"G. c #2F2F32",
"H. c #302F33",
"J. c #303033",
"K. c #303034",
"L. c #313034",
"P. c #313134",
"I. c #313135",
"U. c #323235",
"Y. c #333335",
"T. c #313136",
"R. c #323236",
"E. c #343337",
"W. c #343436",
"Q. c #343438",
"!. c #353539",
"~. c #373738",
"^. c #363639",
"/. c #35353A",
"(. c #36363A",
"). c #393939",
"_. c #38383C",
"`. c #39393C",
"'. c #39383D",
"]. c #39393D",
"[. c #39393E",
"{. c #3B3A3F",
"}. c #3B3B3F",
"|. c #3C3C3C",
" X c #3E3E3F",
".X c #3F3F3F",
"XX c #3C3C40",
"oX c #3D3D42",
"OX c #3E3E42",
"+X c #3F3F44",
"@X c #434343",
"#X c #404045",
"$X c #434344",
"%X c #454546",
"&X c #464647",
"*X c #434349",
"=X c #444449",
"-X c #47474C",
";X c #484848",
":X c #4A4A4C",
">X c #4B4B4C",
",X c #49484E",
"<X c #4C4C4C",
"1X c #4B4B51",
"2X c #4C4C51",
"3X c #505050",
"4X c #535354",
"5X c #555555",
"6X c #54535A",
"7X c #54545A",
"8X c #57575B",
"9X c #57575D",
"0X c gray35",
"qX c #59595A",
"wX c #5D5D5D",
"eX c #5F5F62",
"rX c #626262",
"tX c #676768",
"yX c #686868",
"uX c gray42",
"iX c #6B6B6E",
"pX c #6D6D6F",
"aX c gray43",
"sX c #696971",
"dX c #6F6F74",
"fX c #707071",
"gX c #727272",
"hX c #747474",
"jX c #717179",
"kX c gray48",
"lX c #7C7C7C",
"zX c #7E7E7E",
"xX c gray52",
"cX c #82838C",
"vX c #89898A",
"bX c #888993",
"nX c #929292",
/* pixels */
"                                                                        ",
"                                                                        ",
"                                                                        ",
"                                                                        ",
"                    k p p N     N N N P         p p k                   ",
"                p N N N N P ) P N p N N N P   X.P N N N                 ",
"            p p p p p N N P P N p p N N N P X.,.P N N P                 ",
"          p p p p p p p N P P N N N N N N X.X.P P J P ,.X.              ",
"        p p p p p p p p N X.P X.P N N N P c.(.J.,.{ P P P               ",
"        N N p p p p p N F :.P X.' ' P V.-X7XK.OXJ.;.P ;.'   p           ",
"        N N p p p N N ,.9.P P ,.J X.9.-XbXcXsX#X(.c.;.G G N p p         ",
"        N p p p N P X.9.`.X.`.V.N A.*X+XjX1X2X(.`.G.X.z p p k N k       ",
"        k k p p N X.,.OX9XP V.;.z N ' 9.(.`.OXV.,XK.' N N k N P {       ",
"      N N N p p p P d.sXsXz p 1 % O O 5 G y.d.X.d.H.X.P P N P ' 9.      ",
"      N P N ' N k X.A.K.P 1 1 # O O O O # - c P p V.V.V.9.N ' ;.9.      ",
"      k X.X.:.P N c.V.,.1 - 3 O O O O O O O 1 p 5 J.`.K.,.X.`.K.        ",
"      P X.X.P p ,.K.y.V.z 1 O O O O O O O O O 5 ;.`.V.V.V.d.#X(.        ",
"      ,.d.c.,.P K.A.G.V.P 5 O O O O O O O O O 5 A.eX,XG.=X`.K.9.,.      ",
"      y.V.G.y.;.9.X.V.d.' G % O O O O O O O O 1 y.vXdX(.#X`.J.X.N       ",
"      ,.y.d.X.,.d.X.A.d.G.K.5 O O O O O O O # 1 @XnX,Xy.d.G.:.{ N       ",
"      X.,.' N P V.;.,.W.K.;.p % O O O O O O % 5 tXxXqX#XP J N P P       ",
"      P N N N ' 9.X.c.7XaX.XP 1 # O O O O 1 % P zXwX.Xd.k p N N P       ",
"      P N p P X.9.:.E.6XiXuX3XA.5 O O 1 1 r ' @XrXc.X.P N p c N         ",
"      N k p P P X.P 9.(.c.(.qXzX5Xc.,.;.y..X4X%X,.p p N p p p P         ",
"    p p p N P P P N ' X.P 5 p ;XhXaXuXfXkXfX%XV.G p p p N N k J         ",
"    p p p N P X.X.{   N P p 5 5 X..X<X).W.,.N P N p p p N N p p         ",
"    p p p p N         k N N p p r 5 5 1 p p 5 5 p N J p N N N           ",
"      p             P p p p p p P ,.P N N p p p p N P N N               ",
"                    N p p p p p ' d.' N P P N p p N P N                 ",
"                    p p p p p c G   ' G N N p p p ' P                   ",
"                    p p p p N           p p p p p                       ",
"                    p p p p               p p p p                       ",
"                                                                        ",
"                                                                        ",
"                                                                        ",
"                                                                        "
};
